<svg width="32" height="32" viewBox="0 0 32 32" fill="none" xmlns="http://www.w3.org/2000/svg">
<path d="M8.76712 14.0822C9.73551 14.0822 10.5205 13.2972 10.5205 12.3288C10.5205 11.3604 9.73551 10.5753 8.76712 10.5753C7.79874 10.5753 7.0137 11.3604 7.0137 12.3288C7.0137 13.2972 7.79874 14.0822 8.76712 14.0822Z" fill="white"/>
<path fill-rule="evenodd" clip-rule="evenodd" d="M29.254 28.5114H27.3366C26.5148 28.5114 25.6931 28.1279 25.1453 27.4155L19.6122 20.9498H11.9426L6.51905 27.3607C6.02601 28.0731 5.14949 28.5662 4.27296 28.5662H2.73914C1.97218 28.5662 1.26 28.2374 0.766956 27.6895C0.273912 27.1416 0 26.4292 0 25.6621L1.09566 11.2877C1.31479 7.23288 4.65653 4 8.76524 4H22.7896C26.8983 4 30.2401 7.17808 30.4592 11.2877L31.9931 25.6621C32.0479 26.4292 31.774 27.1416 31.2262 27.6895C30.6783 28.2374 30.0209 28.5114 29.254 28.5114ZM23.2329 15.8356C22.5791 15.8356 22.137 15.3007 22.137 14.6469V13.4247H20.9148C20.261 13.4247 19.726 12.9826 19.726 12.3288C19.726 11.675 20.261 11.2329 20.9148 11.2329H22.137V10.0107C22.137 9.35686 22.5791 8.82192 23.2329 8.82192C23.8867 8.82192 24.3288 9.35686 24.3288 10.0107V11.2329H25.551C26.2048 11.2329 26.7397 11.675 26.7397 12.3288C26.7397 12.9826 26.2048 13.4247 25.551 13.4247H24.3288V14.6469C24.3288 15.3007 23.8867 15.8356 23.2329 15.8356ZM8.76712 15.8356C6.82583 15.8356 5.26027 14.2701 5.26027 12.3288C5.26027 10.3875 6.82583 8.82192 8.76712 8.82192C10.7084 8.82192 12.274 10.3875 12.274 12.3288C12.274 14.2701 10.7084 15.8356 8.76712 15.8356Z" fill="white"/>
</svg>
