<svg width="32" height="32" viewBox="0 0 32 32" fill="none" xmlns="http://www.w3.org/2000/svg">
<circle cx="16" cy="16" r="16" fill="url(#paint0_linear_714_1122)"/>
<path fill-rule="evenodd" clip-rule="evenodd" d="M11.625 11V8.5C11.625 7.80964 12.1846 7.25 12.875 7.25H19.125C19.8154 7.25 20.375 7.80964 20.375 8.5V11H23.5C24.1904 11 24.75 11.5596 24.75 12.25V22.875C24.75 23.5654 24.1904 24.125 23.5 24.125H8.5C7.80964 24.125 7.25 23.5654 7.25 22.875V12.25C7.25 11.5596 7.80964 11 8.5 11H11.625ZM13.5 9.125H18.5V11H13.5V9.125ZM11.625 12.25H10.375V22.875H11.625V12.25ZM20.375 12.25V22.875H21.625V12.25H20.375Z" fill="white"/>
<defs>
<linearGradient id="paint0_linear_714_1122" x1="6" y1="4" x2="26.4" y2="27.6" gradientUnits="userSpaceOnUse">
<stop stop-color="#D26FEB"/>
<stop offset="1" stop-color="#AD4898"/>
</linearGradient>
</defs>
</svg>
