<svg width="32" height="32" viewBox="0 0 32 32" fill="none" xmlns="http://www.w3.org/2000/svg">
<path fill-rule="evenodd" clip-rule="evenodd" d="M1.9001 15.9249C3.13353 17.8498 10 25.1455 16 30.6667C22 25.1455 28.8665 17.6072 30.0999 15.9249C31.3333 14.2426 32 12.4813 32 10.4038C32 5.39431 27.881 1.33333 22.8 1.33333C20.1061 1.33333 17.6825 3.45772 16 5.27699C14.3175 3.45772 11.8939 1.33333 9.2 1.33333C4.11898 1.33333 0 5.39431 0 10.4038C0 12.4812 0.666667 14 1.9001 15.9249ZM20.5208 14.9748H22.8451C23.447 14.9748 24.0259 14.5251 23.9991 14.0005C23.9723 13.4727 23.493 13.023 22.8489 13.023H19.7578C19.5009 13.023 19.2594 13.1045 19.06 13.2348C18.8453 13.3749 18.7495 13.5313 18.6459 13.7431C18.251 14.5642 17.8523 15.3886 17.4536 16.2097C17.2129 15.5891 16.9717 14.9687 16.7305 14.3482C16.0003 12.4698 15.2701 10.5914 14.555 8.70893C14.4132 8.33421 14.0681 8.06051 13.6004 8.00837C13.1786 7.9595 12.6495 8.12568 12.454 8.47432C12.1687 8.98266 11.8746 9.48851 11.5804 9.99458C10.9987 10.9951 10.4165 11.9965 9.90052 13.0198H7.81778C7.21584 13.0198 6.64073 13.4694 6.66757 13.9973C6.69441 14.5251 7.17366 14.9748 7.81778 14.9748H10.6137C10.9932 14.9748 11.4341 14.7956 11.6067 14.4925C11.8601 14.0381 12.1168 13.5844 12.3734 13.1308C12.6652 12.615 12.9569 12.0994 13.2438 11.5828C13.7208 12.8102 14.1948 14.0384 14.6688 15.2666C15.1855 16.6055 15.7022 17.9445 16.2228 19.2824C16.3762 19.6766 16.8133 20.0187 17.3309 19.9992C17.8826 19.9815 18.2334 19.7015 18.4389 19.2824C19.131 17.8526 19.823 16.4196 20.5151 14.9866L20.5208 14.9748Z" fill="white"/>
</svg>
