<svg width="32" height="32" viewBox="0 0 32 32" fill="none" xmlns="http://www.w3.org/2000/svg">
<path d="M32 5.61121C31.9921 4.50302 31.5536 3.42982 30.7674 2.6327C29.9575 1.81225 28.8277 1.34565 27.6701 1.34176C20.1932 1.34176 12.7157 1.33398 5.23852 1.33398C4.62617 1.33398 4.01383 1.31843 3.40938 1.43897C2.24 1.67227 1.18914 2.44606 0.588642 3.45704C0.185679 4.13362 0 4.90352 0 5.6812C0 10.3907 0.138272 16.2615 0.138272 20.7798C0.434568 21.9113 1.24444 22.9262 2.29926 23.4628C3.04198 23.8438 3.8242 23.9605 4.64988 23.9605H7.30864V29.8864C7.30864 30.5319 8.20148 30.9518 8.66765 30.4347C10.6157 28.2735 12.5549 26.104 14.5185 23.9566H27.5753C28.3457 23.9566 29.0923 23.7894 29.7679 23.4239C30.8267 22.8562 31.6326 21.8102 31.8933 20.6476C31.8933 16.0656 32 10.3359 32 5.61121ZM18.7654 17.428H6.79506C6.13136 17.428 5.63753 16.8914 5.60988 16.2615C5.58222 15.6316 6.17482 15.095 6.79506 15.095H18.7654C19.4291 15.095 19.923 15.6316 19.9506 16.2615C19.9783 16.8914 19.3857 17.428 18.7654 17.428ZM24.6519 10.3628C18.6997 10.3628 12.7473 10.3511 6.79506 10.3511C6.13136 10.3511 5.63753 9.82233 5.60988 9.19241C5.58222 8.56249 6.17482 8.03367 6.79506 8.03367C12.7472 8.03367 18.6996 8.022 24.6519 8.022C25.3156 8.022 25.8094 8.56249 25.837 9.1963C25.8647 9.82233 25.2721 10.3628 24.6519 10.3628Z" fill="white"/>
</svg>
