<svg width="32" height="32" viewBox="0 0 32 32" fill="none" xmlns="http://www.w3.org/2000/svg">
<circle cx="16" cy="16" r="16" fill="url(#paint0_linear_714_1128)"/>
<path fill-rule="evenodd" clip-rule="evenodd" d="M13.8745 6.00009C9.89885 5.98098 6.67221 9.1711 6.67221 13.1253C6.67221 14.9974 7.38284 16.6975 8.57362 17.9774L6 20.2697L13.8361 20.2888C17.8118 20.3079 21.0384 17.0987 21.0384 13.1635C21.0576 9.20931 17.8502 6.00009 13.8745 6.00009ZM24.1546 19.1092C24.1546 20.752 23.54 22.242 22.5029 23.3499L24.75 25.3366L17.8934 25.3748C15.3774 25.3939 13.2263 23.9421 12.2084 21.8217H14.225C18.412 21.8408 21.8691 18.7462 22.3492 14.7538C23.4632 15.8618 24.1546 17.4091 24.1546 19.1092ZM11.625 13.1875C11.625 13.7053 11.2053 14.125 10.6875 14.125C10.1697 14.125 9.75 13.7053 9.75 13.1875C9.75 12.6697 10.1697 12.25 10.6875 12.25C11.2053 12.25 11.625 12.6697 11.625 13.1875ZM14.75 13.1875C14.75 13.7053 14.3303 14.125 13.8125 14.125C13.2947 14.125 12.875 13.7053 12.875 13.1875C12.875 12.6697 13.2947 12.25 13.8125 12.25C14.3303 12.25 14.75 12.6697 14.75 13.1875ZM16.9375 14.125C17.4553 14.125 17.875 13.7053 17.875 13.1875C17.875 12.6697 17.4553 12.25 16.9375 12.25C16.4197 12.25 16 12.6697 16 13.1875C16 13.7053 16.4197 14.125 16.9375 14.125Z" fill="url(#paint1_linear_714_1128)"/>
<defs>
<linearGradient id="paint0_linear_714_1128" x1="6" y1="4" x2="26.4" y2="27.6" gradientUnits="userSpaceOnUse">
<stop stop-color="#FC5EA7"/>
<stop offset="0.0001" stop-color="#EA78B1"/>
<stop offset="1" stop-color="#E6378B"/>
</linearGradient>
<linearGradient id="paint1_linear_714_1128" x1="15.375" y1="6" x2="15.375" y2="25.375" gradientUnits="userSpaceOnUse">
<stop stop-color="white"/>
<stop offset="1" stop-color="#F1F1F2"/>
</linearGradient>
</defs>
</svg>
