<svg width="32" height="32" viewBox="0 0 32 32" fill="none" xmlns="http://www.w3.org/2000/svg">
<circle opacity="0.2" cx="16" cy="16" r="16" fill="white"/>
<path d="M9 24.0802H8.25C8.25 24.4944 8.58579 24.8302 9 24.8302V24.0802ZM23 24.0802V24.8302C23.4142 24.8302 23.75 24.4944 23.75 24.0802H23ZM8 14.0802H7.25C7.25 14.4944 7.58579 14.8302 8 14.8302V14.0802ZM8 11.0802V10.3302C7.58579 10.3302 7.25 10.666 7.25 11.0802H8ZM24 11.0802H24.75C24.75 10.666 24.4142 10.3302 24 10.3302V11.0802ZM24 14.0802V14.8302C24.4142 14.8302 24.75 14.4944 24.75 14.0802H24ZM16 11.0802L15.9501 11.8285C15.9833 11.8308 16.0167 11.8308 16.0499 11.8285L16 11.0802ZM9 24.8302H23V23.3302H9V24.8302ZM23.75 24.0802V14.0802H22.25V24.0802H23.75ZM23 13.3302H9V14.8302H23V13.3302ZM8.25 14.0802V24.0802H9.75V14.0802H8.25ZM9 13.3302H8V14.8302H9V13.3302ZM8.75 14.0802V11.0802H7.25V14.0802H8.75ZM8 11.8302H24V10.3302H8V11.8302ZM23.25 11.0802V14.0802H24.75V11.0802H23.25ZM24 13.3302H23V14.8302H24V13.3302ZM16.6828 11.3906C17.0881 10.4989 17.7934 9.22245 18.5928 8.42302C18.9952 8.02063 19.3474 7.81451 19.6273 7.76323C19.8477 7.72283 20.1175 7.75848 20.4695 8.11053L21.5302 7.04987C20.8823 6.40192 20.1312 6.14591 19.3569 6.2878C18.642 6.41881 18.0255 6.86894 17.5321 7.36238C16.5399 8.35461 15.7452 9.82821 15.3172 10.7698L16.6828 11.3906ZM20.4695 8.11053C20.659 8.29995 20.7204 8.43143 20.7392 8.49898C20.754 8.55188 20.7512 8.59129 20.7273 8.64564C20.6566 8.80664 20.4048 9.06564 19.8473 9.34925C18.7763 9.89416 17.133 10.253 15.9501 10.3319L16.0499 11.8285C17.367 11.7407 19.2236 11.3496 20.5275 10.6862C21.1576 10.3656 21.812 9.90584 22.1006 9.24913C22.2564 8.89464 22.2966 8.50045 22.1844 8.09697C22.0762 7.70814 21.8408 7.36045 21.5302 7.04987L20.4695 8.11053ZM16.6828 10.7698C16.2548 9.8282 15.4601 8.3546 14.4678 7.36237C13.9744 6.86893 13.3579 6.41881 12.643 6.2878C11.8687 6.14591 11.1176 6.40192 10.4697 7.04987L11.5303 8.11053C11.8824 7.75848 12.1521 7.72282 12.3726 7.76323C12.6525 7.81451 13.0048 8.02064 13.4072 8.42303C14.2066 9.22247 14.9119 10.4989 15.3172 11.3906L16.6828 10.7698ZM10.4697 7.04987C10.1591 7.36046 9.92367 7.70815 9.81551 8.09698C9.70327 8.50047 9.74351 8.89466 9.89931 9.24915C10.1879 9.90586 10.8423 10.3656 11.4724 10.6862C12.7764 11.3496 14.633 11.7407 15.9501 11.8285L16.0499 10.3319C14.867 10.253 13.2236 9.89416 12.1526 9.34924C11.5951 9.06563 11.3433 8.80663 11.2725 8.64563C11.2487 8.59127 11.2459 8.55186 11.2606 8.49897C11.2794 8.43142 11.3409 8.29995 11.5303 8.11053L10.4697 7.04987Z" fill="#A484FF"/>
</svg>
