<svg width="361" height="674" viewBox="0 0 361 674" fill="none" xmlns="http://www.w3.org/2000/svg">
<path opacity="0.2" d="M360.892 12.3211C365.284 7.86086 370.635 4.46298 376.539 2.38677C411.715 -9.92348 467.83 25.0204 558.496 115.715C648.906 206.152 694.367 272.316 674.324 303.46C653.316 336.111 604.875 337.383 542.058 344.107C485.026 350.207 420.39 357.126 388.707 388.819C357.024 420.511 350.114 485.161 344.016 542.211C337.294 605.089 331.515 659.387 296.909 671.6C261.976 683.931 206.083 649.106 115.674 558.661C25.0147 467.974 -9.92529 411.841 2.38808 376.648C14.5487 341.912 68.6566 335.785 131.307 328.713C187.839 322.342 251.913 315.117 283.47 283.556C315.028 251.996 322.265 187.888 328.612 131.339C334.467 79.5412 339.648 33.5792 360.892 12.3211Z" fill="url(#paint0_linear_1071_8073)"/>
<defs>
<linearGradient id="paint0_linear_1071_8073" x1="559.578" y1="116.79" x2="116.623" y2="559.608" gradientUnits="userSpaceOnUse">
<stop stop-color="#D84594"/>
<stop offset="1" stop-color="#574EA0"/>
</linearGradient>
</defs>
</svg>
