<svg width="32" height="32" viewBox="0 0 32 32" fill="none" xmlns="http://www.w3.org/2000/svg">
<path d="M29.2745 6.70136C26.5878 8.06401 19.3992 11.6891 16.8684 12.9651C16.3026 13.2504 15.6379 13.2492 15.0721 12.964C10.9488 10.8857 6.83315 8.79084 2.71509 6.70136C7.14017 4.46417 11.584 2.2624 15.9966 0C20.4155 2.24821 24.8485 4.46782 29.2745 6.70136Z" fill="white"/>
<path d="M13.7624 14.8747C14.4388 15.2147 14.866 15.9067 14.868 16.6637C14.882 21.7735 14.9718 26.8932 14.8627 32C10.3505 29.711 5.84277 27.4127 1.33325 25.1184V8.56145C5.47456 10.6684 9.61123 12.7877 13.7624 14.8747Z" fill="white"/>
<path d="M30.6665 8.56144C30.6665 14.0837 30.6308 19.6071 30.6665 25.1292C26.1612 27.3973 21.5377 29.5352 17.1335 32C17.1335 26.8849 17.1396 21.7616 17.1405 16.6501C17.1407 15.8945 17.5665 15.2035 18.2411 14.8633C22.3125 12.8105 26.3771 10.7436 30.4434 8.6804C30.4614 8.67122 30.6665 8.56144 30.6665 8.56144Z" fill="white"/>
</svg>
