<svg width="32" height="32" viewBox="0 0 32 32" fill="none" xmlns="http://www.w3.org/2000/svg">
<path fill-rule="evenodd" clip-rule="evenodd" d="M2.09425 6.55877L15.3966 0.137704C15.7769 -0.0459012 16.2229 -0.0459012 16.6033 0.137704L29.9056 6.55877C30.3715 6.78368 30.6666 7.24815 30.6666 7.75676V24.2432C30.6666 24.7518 30.3715 25.2163 29.9056 25.4412L16.6033 31.8623C16.2229 32.0459 15.7769 32.0459 15.3966 31.8623L2.09425 25.4412C1.6283 25.2163 1.33325 24.7518 1.33325 24.2432V7.75676C1.33325 7.24815 1.62829 6.78368 2.09425 6.55877ZM29.3607 8.10497C29.2798 7.95034 29.1509 7.8338 28.9999 7.76359L24.262 5.49984C23.8713 5.31318 23.3963 5.4645 23.201 5.83781C23.0056 6.21112 23.164 6.66506 23.5546 6.85171L26.885 8.44294L23.5546 10.0342C23.164 10.2208 23.0056 10.6748 23.201 11.0481C23.3963 11.4214 23.8713 11.5727 24.262 11.386L27.8625 9.66572V13.733C27.8625 14.1504 28.2166 14.4887 28.6534 14.4887C29.0901 14.4887 29.4442 14.1504 29.4442 13.733V8.45814C29.4462 8.36452 29.4301 8.26944 29.3936 8.17687C29.3869 8.16004 29.3797 8.14347 29.3719 8.12718C29.3683 8.11975 29.3646 8.11234 29.3607 8.10497ZM29.3719 23.8731C29.4234 23.7661 29.4466 23.6531 29.4442 23.5422V18.2673C29.4442 17.8499 29.0901 17.5116 28.6534 17.5116C28.2166 17.5116 27.8625 17.8499 27.8625 18.2673V22.3346L24.262 20.6143C23.8713 20.4276 23.3963 20.5789 23.201 20.9522C23.0056 21.3255 23.164 21.7795 23.5546 21.9661L26.885 23.5574L23.5546 25.1486C23.164 25.3352 23.0056 25.7892 23.201 26.1625C23.3963 26.5358 23.8713 26.6871 24.262 26.5005L28.9999 24.2367C29.0766 24.201 29.1476 24.1534 29.2142 24.0902C29.2798 24.0271 29.3331 23.9536 29.3719 23.8731ZM8.4452 25.1486L5.11486 23.5574L8.4452 21.9661C8.83586 21.7795 8.9942 21.3255 8.79888 20.9522C8.60355 20.5789 8.12851 20.4276 7.73785 20.6143L4.13733 22.3346V18.2673C4.13733 17.8499 3.78326 17.5116 3.34649 17.5116C2.90972 17.5116 2.55565 17.8499 2.55565 18.2673V23.5422C2.5536 23.6358 2.56978 23.7308 2.60627 23.8234C2.6129 23.8402 2.62014 23.8568 2.62798 23.8731C2.63157 23.8805 2.63529 23.8879 2.63914 23.8953C2.72005 24.05 2.84895 24.1665 2.99996 24.2367L7.73785 26.5005C8.12851 26.6871 8.60355 26.5358 8.79888 26.1625C8.9942 25.7892 8.83586 25.3352 8.4452 25.1486ZM4.13733 13.733V9.66572L7.73785 11.386C8.12851 11.5727 8.60355 11.4214 8.79888 11.0481C8.9942 10.6748 8.83586 10.2208 8.4452 10.0342L5.11486 8.44294L8.4452 6.85171C8.83586 6.66506 8.9942 6.21112 8.79888 5.83781C8.60355 5.4645 8.12851 5.31318 7.73785 5.49984L2.99996 7.76359C2.92326 7.79925 2.85226 7.84686 2.78567 7.91008C2.72006 7.97316 2.66672 8.04672 2.62798 8.12718C2.5764 8.2342 2.55322 8.34719 2.55565 8.45814V13.733C2.55565 14.1504 2.90972 14.4887 3.34649 14.4887C3.78326 14.4887 4.13733 14.1504 4.13733 13.733ZM15.9999 1.64145C15.8671 1.64145 15.7419 1.67274 15.632 1.72803L10.9012 3.9884C10.5106 4.17505 10.3522 4.62899 10.5475 5.0023C10.7429 5.37561 11.2179 5.52693 11.6086 5.34027L15.2091 3.61995V7.68722C15.2091 8.10459 15.5632 8.44294 15.9999 8.44294C16.4367 8.44294 16.7908 8.10459 16.7908 7.68722V3.61995L20.3913 5.34027C20.7819 5.52693 21.257 5.37561 21.4523 5.0023C21.6476 4.62899 21.4893 4.17505 21.0986 3.9884L16.3678 1.72803C16.2579 1.67274 16.1327 1.64145 15.9999 1.64145ZM15.9999 30.3588C16.1327 30.3588 16.2579 30.3275 16.3678 30.2723L21.0986 28.0119C21.4893 27.8252 21.6476 27.3713 21.4523 26.998C21.257 26.6247 20.7819 26.4734 20.3913 26.66L16.7908 28.3803V24.3131C16.7908 23.8957 16.4367 23.5574 15.9999 23.5574C15.5632 23.5574 15.2091 23.8957 15.2091 24.3131V28.3803L11.6086 26.66C11.2179 26.4734 10.7429 26.6247 10.5475 26.998C10.3522 27.3713 10.5106 27.8252 10.9012 28.0119L15.632 30.2723C15.7419 30.3275 15.8671 30.3588 15.9999 30.3588ZM16.7908 19.023V14.9558L21.0986 12.8975C21.4893 12.7108 21.6476 12.2569 21.4523 11.8836C21.257 11.5103 20.7819 11.359 20.3913 11.5456L15.9999 13.6438L11.6086 11.5456C11.2179 11.359 10.7429 11.5103 10.5475 11.8836C10.3522 12.2569 10.5106 12.7108 10.9012 12.8975L15.2091 14.9558V19.023C15.2091 19.4404 15.5632 19.7788 15.9999 19.7788C16.4367 19.7788 16.7908 19.4404 16.7908 19.023Z" fill="white"/>
</svg>
