<svg width="32" height="32" viewBox="0 0 32 32" fill="none" xmlns="http://www.w3.org/2000/svg">
<circle cx="16" cy="16" r="16" fill="url(#paint0_linear_714_1116)"/>
<path fill-rule="evenodd" clip-rule="evenodd" d="M16 26C21.5228 26 26 21.5228 26 16C26 10.4772 21.5228 6 16 6C10.4772 6 6 10.4772 6 16C6 21.5228 10.4772 26 16 26ZM15.5349 12.9021C14.915 12.9739 14.4582 13.3459 14.4582 13.9397C14.4582 14.4096 14.7584 14.7489 15.3522 14.9447C15.4109 14.9643 15.4697 14.9838 15.5349 14.9969V12.9021ZM16.5399 19.1343C17.2316 19.0755 17.7211 18.6514 17.7211 18.0118C17.7211 17.4767 17.4013 17.1178 16.6704 16.9155C16.6313 16.909 16.5856 16.8959 16.5399 16.8829V19.1343ZM16.5464 20.5438L16.553 21.3726H15.4958L15.5023 20.5569C13.3423 20.4003 12.5331 19.1277 12.52 17.9205H14.2298C14.2624 18.5208 14.6996 19.0233 15.5349 19.1343V16.7067L14.9737 16.5827C13.7599 16.3151 12.6897 15.5581 12.6897 14.0768C12.6897 12.5106 13.9296 11.6426 15.5088 11.4991V10.6572H16.566V11.5056C18.217 11.6818 19.2808 12.7129 19.3069 14.0702H17.6362C17.6167 13.5482 17.2316 13.0261 16.5399 12.9152V15.1927L17.0946 15.3101C18.4063 15.5907 19.47 16.2564 19.47 17.8356C19.47 19.3888 18.3345 20.3742 16.5464 20.5438Z" fill="url(#paint1_linear_714_1116)"/>
<defs>
<linearGradient id="paint0_linear_714_1116" x1="6" y1="4" x2="32" y2="38" gradientUnits="userSpaceOnUse">
<stop stop-color="#7B61FF"/>
<stop offset="1" stop-color="#7C2E62"/>
</linearGradient>
<linearGradient id="paint1_linear_714_1116" x1="16" y1="6" x2="16" y2="26" gradientUnits="userSpaceOnUse">
<stop stop-color="white"/>
<stop offset="1" stop-color="#F1F1F2"/>
</linearGradient>
</defs>
</svg>
