<svg width="32" height="32" viewBox="0 0 32 32" fill="none" xmlns="http://www.w3.org/2000/svg">
<circle opacity="0.2" cx="16" cy="16" r="16" fill="white"/>
<path d="M25.5 13.75C25.9142 13.75 26.25 13.4142 26.25 13C26.25 12.5858 25.9142 12.25 25.5 12.25V13.75ZM25.5 19.75C25.9142 19.75 26.25 19.4142 26.25 19C26.25 18.5858 25.9142 18.25 25.5 18.25V19.75ZM18.75 16C18.75 15.5858 18.4142 15.25 18 15.25C17.5858 15.25 17.25 15.5858 17.25 16H18.75ZM17.25 16.01C17.25 16.4242 17.5858 16.76 18 16.76C18.4142 16.76 18.75 16.4242 18.75 16.01H17.25ZM8.61111 9.75H23.3889V8.25H8.61111V9.75ZM23.3889 22.25H8.61111V23.75H23.3889V22.25ZM7.25 20.6667V11.3333H5.75V20.6667H7.25ZM8.61111 22.25C7.92825 22.25 7.25 21.6135 7.25 20.6667H5.75C5.75 22.2972 6.9621 23.75 8.61111 23.75V22.25ZM24.75 20.6667C24.75 21.6135 24.0718 22.25 23.3889 22.25V23.75C25.0379 23.75 26.25 22.2972 26.25 20.6667H24.75ZM23.3889 9.75C24.0718 9.75 24.75 10.3865 24.75 11.3333H26.25C26.25 9.70284 25.0379 8.25 23.3889 8.25V9.75ZM8.61111 8.25C6.96211 8.25 5.75 9.70284 5.75 11.3333H7.25C7.25 10.3865 7.92825 9.75 8.61111 9.75V8.25ZM18 13.75H25.5V12.25H18V13.75ZM25.5 18.25H18V19.75H25.5V18.25ZM18 18.25C16.7574 18.25 15.75 17.2426 15.75 16H14.25C14.25 18.0711 15.9289 19.75 18 19.75V18.25ZM18 12.25C15.9289 12.25 14.25 13.9289 14.25 16H15.75C15.75 14.7574 16.7574 13.75 18 13.75V12.25ZM17.25 16V16.01H18.75V16H17.25ZM24.75 11.3333V20.6667H26.25V11.3333H24.75Z" fill="#AEE7FF"/>
</svg>
